<?xml version="1.0" encoding="UTF-8" standalone="no"?>
<!DOCTYPE svg PUBLIC "-//W3C//DTD SVG 1.1//EN" "http://www.w3.org/Graphics/SVG/1.1/DTD/svg11.dtd">
<svg width="100%" height="100%" viewBox="0 0 128 128" version="1.1" xmlns="http://www.w3.org/2000/svg" xmlns:xlink="http://www.w3.org/1999/xlink" xml:space="preserve" xmlns:serif="http://www.serif.com/" style="fill-rule:evenodd;clip-rule:evenodd;stroke-linecap:round;stroke-linejoin:round;stroke-miterlimit:1.5;">
    <g transform="matrix(0.804878,0,0,0.804878,-26.54878,-16.890244)">
        <path d="M118.448,39.288L137.955,44.515C141.573,46.16 145.023,48.152 148.257,50.463L145.185,59.703C148.178,62.101 150.899,64.822 153.297,67.815L162.537,64.743C164.848,67.977 166.84,71.427 168.485,75.045L173.712,94.552C174.096,98.508 174.096,102.492 173.712,106.448L164.174,108.407C163.593,112.199 162.598,115.915 161.204,119.489L168.485,125.955C166.84,129.573 164.848,133.023 162.537,136.257L148.257,150.537C145.023,152.848 141.573,154.84 137.955,156.485L131.489,149.204C127.915,150.598 124.199,151.593 120.407,152.174L118.448,161.712C114.492,162.096 110.508,162.096 106.552,161.712L87.045,156.485C83.427,154.84 79.977,152.848 76.743,150.537L79.815,141.297C76.822,138.899 74.101,136.178 71.703,133.185L62.463,136.257C60.152,133.023 58.16,129.573 56.515,125.955L51.288,106.448C50.904,102.492 50.904,98.508 51.288,94.552L60.826,92.593C61.407,88.801 62.402,85.085 63.796,81.511L56.515,75.045C58.16,71.427 60.152,67.977 62.463,64.743L76.743,50.463C79.977,48.152 83.427,46.16 87.045,44.515L93.511,51.796C97.085,50.402 100.801,49.407 104.593,48.826L106.552,39.288C110.508,38.904 114.492,38.904 118.448,39.288Z" style="fill:none;stroke:white;stroke-width:15.53px;"/>
    </g>
    <g transform="matrix(0.531915,0,0,0.531915,30.755319,29.691489)">
        <circle cx="62.5" cy="64.5" r="23.5" style="fill:none;stroke:white;stroke-width:23.5px;"/>
    </g>
</svg>
